<svg width="612" height="259" viewBox="0 0 612 259" fill="none" xmlns="http://www.w3.org/2000/svg">
<g clip-path="url(#clip0_205_21)">
<path d="M391 24H558C561.314 24 564 26.6863 564 30V229C564 232.314 561.314 235 558 235H391V24Z" fill="#000116"/>
<path d="M24 30C24 26.6863 26.6863 24 30 24H391V235H30C26.6863 235 24 232.314 24 229V30Z" fill="white"/>
<path d="M564 0H391V12H564C570.627 12 576 17.3726 576 24V235C576 241.627 570.627 247 564 247H391V259H564C577.255 259 588 248.255 588 235V24C588 10.7452 577.255 0 564 0Z" fill="#000116"/>
<path d="M24 0C10.7452 0 0 10.7452 0 24V235C0 248.255 10.7452 259 24 259H391V247H24C17.3726 247 12 241.627 12 235V24C12 17.3726 17.3726 12 24 12H391V0H24Z" fill="white"/>
<g clip-path="url(#clip1_205_21)">
<path d="M131.394 117.28V122.08H125.674V140.18H131.394V145H113.394V140.18H119.114V122.08H113.394V117.28H131.394ZM158.698 143.76C157.871 144.293 156.871 144.747 155.698 145.12C154.525 145.493 153.205 145.68 151.738 145.68C148.965 145.68 146.905 144.973 145.558 143.56C144.211 142.133 143.538 140.2 143.538 137.76V128.12H139.078V123.76H143.538V119.16L149.858 118.4V123.76H156.698L156.078 128.12H149.858V137.76C149.858 138.813 150.098 139.567 150.578 140.02C151.058 140.473 151.825 140.7 152.878 140.7C153.625 140.7 154.305 140.613 154.918 140.44C155.545 140.253 156.105 140.02 156.598 139.74L158.698 143.76ZM185.883 136.9C185.883 138.62 185.429 140.14 184.523 141.46C183.629 142.78 182.343 143.813 180.663 144.56C178.983 145.307 176.963 145.68 174.603 145.68C171.989 145.68 169.796 145.3 168.023 144.54C166.263 143.767 164.803 142.813 163.643 141.68L166.963 138C167.989 138.893 169.123 139.587 170.363 140.08C171.603 140.56 172.963 140.8 174.443 140.8C175.363 140.8 176.169 140.667 176.863 140.4C177.556 140.133 178.096 139.747 178.483 139.24C178.869 138.733 179.063 138.12 179.063 137.4C179.063 136.72 178.909 136.147 178.603 135.68C178.296 135.213 177.776 134.793 177.043 134.42C176.323 134.047 175.316 133.667 174.023 133.28C171.863 132.613 170.123 131.88 168.803 131.08C167.496 130.28 166.543 129.353 165.943 128.3C165.356 127.247 165.063 126.02 165.063 124.62C165.063 122.927 165.529 121.48 166.463 120.28C167.409 119.08 168.676 118.167 170.263 117.54C171.849 116.9 173.596 116.58 175.503 116.58C177.649 116.58 179.543 116.893 181.183 117.52C182.823 118.133 184.243 119.013 185.443 120.16L182.343 123.72C181.409 122.933 180.403 122.353 179.323 121.98C178.243 121.593 177.143 121.4 176.023 121.4C175.196 121.4 174.469 121.507 173.843 121.72C173.216 121.92 172.729 122.22 172.383 122.62C172.036 123.02 171.863 123.52 171.863 124.12C171.863 124.707 172.029 125.2 172.363 125.6C172.696 126 173.276 126.38 174.103 126.74C174.929 127.087 176.076 127.493 177.543 127.96C179.289 128.493 180.783 129.133 182.023 129.88C183.276 130.613 184.229 131.54 184.883 132.66C185.549 133.78 185.883 135.193 185.883 136.9ZM205.327 123.76V140.68H210.727V145H192.987V140.68H199.007V128.08H193.187V123.76H205.327ZM201.507 112.64C202.6 112.64 203.494 112.98 204.187 113.66C204.88 114.34 205.227 115.187 205.227 116.2C205.227 117.213 204.88 118.067 204.187 118.76C203.494 119.44 202.6 119.78 201.507 119.78C200.4 119.78 199.494 119.44 198.787 118.76C198.094 118.067 197.747 117.213 197.747 116.2C197.747 115.187 198.094 114.34 198.787 113.66C199.494 112.98 200.4 112.64 201.507 112.64ZM234.431 123.06C235.445 123.06 236.278 123.273 236.931 123.7C237.585 124.127 238.071 124.8 238.391 125.72C238.711 126.627 238.871 127.813 238.871 129.28V145H233.451V130C233.451 129.253 233.378 128.727 233.231 128.42C233.098 128.113 232.818 127.96 232.391 127.96C232.058 127.96 231.711 128.06 231.351 128.26C231.005 128.447 230.618 128.807 230.191 129.34V145H225.751V130C225.751 129.253 225.678 128.727 225.531 128.42C225.398 128.113 225.118 127.96 224.691 127.96C224.358 127.96 224.011 128.06 223.651 128.26C223.305 128.447 222.918 128.807 222.491 129.34V145H216.991V123.76H221.631L222.051 125.82C222.718 124.913 223.391 124.227 224.071 123.76C224.751 123.293 225.558 123.06 226.491 123.06C227.291 123.06 227.971 123.267 228.531 123.68C229.105 124.08 229.511 124.713 229.751 125.58C230.391 124.833 231.098 124.227 231.871 123.76C232.645 123.293 233.498 123.06 234.431 123.06ZM256.876 123.06C258.729 123.06 260.222 123.52 261.356 124.44C262.489 125.36 263.316 126.66 263.836 128.34C264.369 130.02 264.636 132.013 264.636 134.32C264.636 136.507 264.316 138.46 263.676 140.18C263.036 141.887 262.109 143.233 260.896 144.22C259.682 145.193 258.209 145.68 256.476 145.68C254.409 145.68 252.729 144.94 251.436 143.46V153.2L245.116 153.86V123.76H250.716L250.996 126.14C251.862 125.033 252.809 124.247 253.836 123.78C254.862 123.3 255.876 123.06 256.876 123.06ZM254.916 127.72C254.182 127.72 253.536 127.94 252.976 128.38C252.416 128.82 251.902 129.42 251.436 130.18V139.14C251.876 139.793 252.336 140.273 252.816 140.58C253.309 140.887 253.889 141.04 254.556 141.04C255.676 141.04 256.549 140.533 257.176 139.52C257.802 138.493 258.116 136.787 258.116 134.4C258.116 132.64 257.989 131.28 257.736 130.32C257.482 129.347 257.116 128.673 256.636 128.3C256.156 127.913 255.582 127.72 254.916 127.72ZM282.58 115.32V138.32C282.58 139.173 282.82 139.787 283.3 140.16C283.793 140.52 284.467 140.7 285.32 140.7C285.867 140.7 286.393 140.64 286.9 140.52C287.407 140.387 287.88 140.233 288.32 140.06L289.84 144.28C289.12 144.653 288.253 144.98 287.24 145.26C286.227 145.54 285.047 145.68 283.7 145.68C281.14 145.68 279.26 144.947 278.06 143.48C276.86 142 276.26 140.02 276.26 137.54V119.64H270V115.32H282.58ZM303.364 136.22C303.511 137.38 303.811 138.32 304.264 139.04C304.731 139.747 305.324 140.267 306.044 140.6C306.764 140.92 307.571 141.08 308.464 141.08C309.438 141.08 310.378 140.92 311.284 140.6C312.191 140.28 313.064 139.853 313.904 139.32L316.444 142.76C315.444 143.613 314.231 144.313 312.804 144.86C311.391 145.407 309.778 145.68 307.964 145.68C305.538 145.68 303.504 145.2 301.864 144.24C300.224 143.267 298.991 141.933 298.164 140.24C297.338 138.547 296.924 136.6 296.924 134.4C296.924 132.307 297.324 130.407 298.124 128.7C298.924 126.98 300.091 125.613 301.624 124.6C303.171 123.573 305.058 123.06 307.284 123.06C309.311 123.06 311.064 123.493 312.544 124.36C314.038 125.227 315.191 126.473 316.004 128.1C316.831 129.727 317.244 131.68 317.244 133.96C317.244 134.32 317.231 134.707 317.204 135.12C317.191 135.533 317.164 135.9 317.124 136.22H303.364ZM307.284 127.3C306.151 127.3 305.238 127.707 304.544 128.52C303.851 129.333 303.431 130.633 303.284 132.42H311.084C311.071 130.873 310.771 129.633 310.184 128.7C309.598 127.767 308.631 127.3 307.284 127.3ZM335.789 116.58C337.775 116.58 339.462 116.847 340.849 117.38C342.249 117.9 343.529 118.64 344.689 119.6L341.469 123.48C340.709 122.853 339.869 122.36 338.949 122C338.029 121.627 337.029 121.44 335.949 121.44C334.789 121.44 333.729 121.773 332.769 122.44C331.809 123.093 331.042 124.133 330.469 125.56C329.895 126.973 329.609 128.813 329.609 131.08C329.609 133.307 329.882 135.127 330.429 136.54C330.989 137.94 331.755 138.973 332.729 139.64C333.702 140.293 334.815 140.62 336.069 140.62C337.455 140.62 338.609 140.36 339.529 139.84C340.449 139.32 341.295 138.753 342.069 138.14L345.049 141.94C344.009 142.967 342.729 143.847 341.209 144.58C339.689 145.313 337.855 145.68 335.709 145.68C333.202 145.68 330.975 145.127 329.029 144.02C327.095 142.9 325.575 141.26 324.469 139.1C323.375 136.927 322.829 134.253 322.829 131.08C322.829 127.987 323.395 125.36 324.529 123.2C325.675 121.04 327.229 119.4 329.189 118.28C331.149 117.147 333.349 116.58 335.789 116.58ZM359.853 123.06C362.04 123.06 363.9 123.527 365.433 124.46C366.966 125.393 368.14 126.707 368.953 128.4C369.766 130.08 370.173 132.053 370.173 134.32C370.173 136.68 369.76 138.713 368.933 140.42C368.12 142.113 366.946 143.413 365.413 144.32C363.88 145.227 362.026 145.68 359.853 145.68C357.693 145.68 355.84 145.233 354.293 144.34C352.76 143.447 351.58 142.153 350.753 140.46C349.94 138.767 349.533 136.733 349.533 134.36C349.533 132.107 349.94 130.133 350.753 128.44C351.58 126.747 352.76 125.427 354.293 124.48C355.84 123.533 357.693 123.06 359.853 123.06ZM359.853 127.72C358.56 127.72 357.6 128.253 356.973 129.32C356.36 130.373 356.053 132.053 356.053 134.36C356.053 136.707 356.36 138.407 356.973 139.46C357.6 140.513 358.56 141.04 359.853 141.04C361.146 141.04 362.1 140.513 362.713 139.46C363.34 138.407 363.653 136.693 363.653 134.32C363.653 132.027 363.34 130.353 362.713 129.3C362.1 128.247 361.146 127.72 359.853 127.72ZM389.117 114.66L395.437 115.32V145H389.837L389.517 142.66C388.931 143.487 388.151 144.2 387.177 144.8C386.204 145.387 385.024 145.68 383.637 145.68C381.877 145.68 380.417 145.207 379.257 144.26C378.111 143.313 377.251 141.993 376.677 140.3C376.117 138.593 375.837 136.6 375.837 134.32C375.837 132.133 376.177 130.193 376.857 128.5C377.537 126.807 378.511 125.48 379.777 124.52C381.044 123.547 382.551 123.06 384.297 123.06C385.244 123.06 386.124 123.227 386.937 123.56C387.751 123.893 388.477 124.38 389.117 125.02V114.66ZM385.997 127.68C384.904 127.68 384.024 128.2 383.357 129.24C382.691 130.267 382.357 131.973 382.357 134.36C382.357 136.107 382.497 137.467 382.777 138.44C383.057 139.4 383.444 140.073 383.937 140.46C384.431 140.847 384.997 141.04 385.637 141.04C386.344 141.04 386.984 140.82 387.557 140.38C388.144 139.94 388.664 139.34 389.117 138.58V129.42C388.677 128.873 388.211 128.447 387.717 128.14C387.224 127.833 386.651 127.68 385.997 127.68ZM408.902 136.22C409.049 137.38 409.349 138.32 409.802 139.04C410.269 139.747 410.862 140.267 411.582 140.6C412.302 140.92 413.109 141.08 414.002 141.08C414.975 141.08 415.915 140.92 416.822 140.6C417.729 140.28 418.602 139.853 419.442 139.32L421.982 142.76C420.982 143.613 419.769 144.313 418.342 144.86C416.929 145.407 415.315 145.68 413.502 145.68C411.075 145.68 409.042 145.2 407.402 144.24C405.762 143.267 404.529 141.933 403.702 140.24C402.875 138.547 402.462 136.6 402.462 134.4C402.462 132.307 402.862 130.407 403.662 128.7C404.462 126.98 405.629 125.613 407.162 124.6C408.709 123.573 410.595 123.06 412.822 123.06C414.849 123.06 416.602 123.493 418.082 124.36C419.575 125.227 420.729 126.473 421.542 128.1C422.369 129.727 422.782 131.68 422.782 133.96C422.782 134.32 422.769 134.707 422.742 135.12C422.729 135.533 422.702 135.9 422.662 136.22H408.902ZM412.822 127.3C411.689 127.3 410.775 127.707 410.082 128.52C409.389 129.333 408.969 130.633 408.822 132.42H416.622C416.609 130.873 416.309 129.633 415.722 128.7C415.135 127.767 414.169 127.3 412.822 127.3Z" fill="white"/>
<path d="M459.081 145.496C454.793 151.298 452.648 154.199 450.648 153.586C448.647 152.973 448.647 149.415 448.647 142.298L448.647 141.627C448.647 139.06 448.647 137.777 447.827 136.972L447.784 136.93C446.946 136.142 445.61 136.142 442.939 136.142C438.131 136.142 435.727 136.142 434.915 134.684C434.901 134.66 434.888 134.636 434.876 134.611C434.109 133.13 435.5 131.247 438.284 127.481L444.919 118.505C449.207 112.702 451.352 109.801 453.352 110.414C455.353 111.027 455.353 114.585 455.353 121.702V122.373C455.353 124.94 455.353 126.223 456.173 127.028L456.216 127.07C457.054 127.858 458.39 127.858 461.062 127.858C465.869 127.858 468.273 127.858 469.085 129.316C469.099 129.34 469.112 129.365 469.125 129.389C469.892 130.87 468.5 132.753 465.716 136.519" stroke="white" stroke-width="3.25" stroke-linecap="round"/>
</g>
<g clip-path="url(#clip2_205_21)">
<path d="M131.394 117.28V122.08H125.674V140.18H131.394V145H113.394V140.18H119.114V122.08H113.394V117.28H131.394ZM158.698 143.76C157.871 144.293 156.871 144.747 155.698 145.12C154.525 145.493 153.205 145.68 151.738 145.68C148.965 145.68 146.905 144.973 145.558 143.56C144.211 142.133 143.538 140.2 143.538 137.76V128.12H139.078V123.76H143.538V119.16L149.858 118.4V123.76H156.698L156.078 128.12H149.858V137.76C149.858 138.813 150.098 139.567 150.578 140.02C151.058 140.473 151.825 140.7 152.878 140.7C153.625 140.7 154.305 140.613 154.918 140.44C155.545 140.253 156.105 140.02 156.598 139.74L158.698 143.76ZM185.883 136.9C185.883 138.62 185.429 140.14 184.523 141.46C183.629 142.78 182.343 143.813 180.663 144.56C178.983 145.307 176.963 145.68 174.603 145.68C171.989 145.68 169.796 145.3 168.023 144.54C166.263 143.767 164.803 142.813 163.643 141.68L166.963 138C167.989 138.893 169.123 139.587 170.363 140.08C171.603 140.56 172.963 140.8 174.443 140.8C175.363 140.8 176.169 140.667 176.863 140.4C177.556 140.133 178.096 139.747 178.483 139.24C178.869 138.733 179.063 138.12 179.063 137.4C179.063 136.72 178.909 136.147 178.603 135.68C178.296 135.213 177.776 134.793 177.043 134.42C176.323 134.047 175.316 133.667 174.023 133.28C171.863 132.613 170.123 131.88 168.803 131.08C167.496 130.28 166.543 129.353 165.943 128.3C165.356 127.247 165.063 126.02 165.063 124.62C165.063 122.927 165.529 121.48 166.463 120.28C167.409 119.08 168.676 118.167 170.263 117.54C171.849 116.9 173.596 116.58 175.503 116.58C177.649 116.58 179.543 116.893 181.183 117.52C182.823 118.133 184.243 119.013 185.443 120.16L182.343 123.72C181.409 122.933 180.403 122.353 179.323 121.98C178.243 121.593 177.143 121.4 176.023 121.4C175.196 121.4 174.469 121.507 173.843 121.72C173.216 121.92 172.729 122.22 172.383 122.62C172.036 123.02 171.863 123.52 171.863 124.12C171.863 124.707 172.029 125.2 172.363 125.6C172.696 126 173.276 126.38 174.103 126.74C174.929 127.087 176.076 127.493 177.543 127.96C179.289 128.493 180.783 129.133 182.023 129.88C183.276 130.613 184.229 131.54 184.883 132.66C185.549 133.78 185.883 135.193 185.883 136.9ZM205.327 123.76V140.68H210.727V145H192.987V140.68H199.007V128.08H193.187V123.76H205.327ZM201.507 112.64C202.6 112.64 203.494 112.98 204.187 113.66C204.88 114.34 205.227 115.187 205.227 116.2C205.227 117.213 204.88 118.067 204.187 118.76C203.494 119.44 202.6 119.78 201.507 119.78C200.4 119.78 199.494 119.44 198.787 118.76C198.094 118.067 197.747 117.213 197.747 116.2C197.747 115.187 198.094 114.34 198.787 113.66C199.494 112.98 200.4 112.64 201.507 112.64ZM234.431 123.06C235.445 123.06 236.278 123.273 236.931 123.7C237.585 124.127 238.071 124.8 238.391 125.72C238.711 126.627 238.871 127.813 238.871 129.28V145H233.451V130C233.451 129.253 233.378 128.727 233.231 128.42C233.098 128.113 232.818 127.96 232.391 127.96C232.058 127.96 231.711 128.06 231.351 128.26C231.005 128.447 230.618 128.807 230.191 129.34V145H225.751V130C225.751 129.253 225.678 128.727 225.531 128.42C225.398 128.113 225.118 127.96 224.691 127.96C224.358 127.96 224.011 128.06 223.651 128.26C223.305 128.447 222.918 128.807 222.491 129.34V145H216.991V123.76H221.631L222.051 125.82C222.718 124.913 223.391 124.227 224.071 123.76C224.751 123.293 225.558 123.06 226.491 123.06C227.291 123.06 227.971 123.267 228.531 123.68C229.105 124.08 229.511 124.713 229.751 125.58C230.391 124.833 231.098 124.227 231.871 123.76C232.645 123.293 233.498 123.06 234.431 123.06ZM256.876 123.06C258.729 123.06 260.222 123.52 261.356 124.44C262.489 125.36 263.316 126.66 263.836 128.34C264.369 130.02 264.636 132.013 264.636 134.32C264.636 136.507 264.316 138.46 263.676 140.18C263.036 141.887 262.109 143.233 260.896 144.22C259.682 145.193 258.209 145.68 256.476 145.68C254.409 145.68 252.729 144.94 251.436 143.46V153.2L245.116 153.86V123.76H250.716L250.996 126.14C251.862 125.033 252.809 124.247 253.836 123.78C254.862 123.3 255.876 123.06 256.876 123.06ZM254.916 127.72C254.182 127.72 253.536 127.94 252.976 128.38C252.416 128.82 251.902 129.42 251.436 130.18V139.14C251.876 139.793 252.336 140.273 252.816 140.58C253.309 140.887 253.889 141.04 254.556 141.04C255.676 141.04 256.549 140.533 257.176 139.52C257.802 138.493 258.116 136.787 258.116 134.4C258.116 132.64 257.989 131.28 257.736 130.32C257.482 129.347 257.116 128.673 256.636 128.3C256.156 127.913 255.582 127.72 254.916 127.72ZM282.58 115.32V138.32C282.58 139.173 282.82 139.787 283.3 140.16C283.793 140.52 284.467 140.7 285.32 140.7C285.867 140.7 286.393 140.64 286.9 140.52C287.407 140.387 287.88 140.233 288.32 140.06L289.84 144.28C289.12 144.653 288.253 144.98 287.24 145.26C286.227 145.54 285.047 145.68 283.7 145.68C281.14 145.68 279.26 144.947 278.06 143.48C276.86 142 276.26 140.02 276.26 137.54V119.64H270V115.32H282.58ZM303.364 136.22C303.511 137.38 303.811 138.32 304.264 139.04C304.731 139.747 305.324 140.267 306.044 140.6C306.764 140.92 307.571 141.08 308.464 141.08C309.438 141.08 310.378 140.92 311.284 140.6C312.191 140.28 313.064 139.853 313.904 139.32L316.444 142.76C315.444 143.613 314.231 144.313 312.804 144.86C311.391 145.407 309.778 145.68 307.964 145.68C305.538 145.68 303.504 145.2 301.864 144.24C300.224 143.267 298.991 141.933 298.164 140.24C297.338 138.547 296.924 136.6 296.924 134.4C296.924 132.307 297.324 130.407 298.124 128.7C298.924 126.98 300.091 125.613 301.624 124.6C303.171 123.573 305.058 123.06 307.284 123.06C309.311 123.06 311.064 123.493 312.544 124.36C314.038 125.227 315.191 126.473 316.004 128.1C316.831 129.727 317.244 131.68 317.244 133.96C317.244 134.32 317.231 134.707 317.204 135.12C317.191 135.533 317.164 135.9 317.124 136.22H303.364ZM307.284 127.3C306.151 127.3 305.238 127.707 304.544 128.52C303.851 129.333 303.431 130.633 303.284 132.42H311.084C311.071 130.873 310.771 129.633 310.184 128.7C309.598 127.767 308.631 127.3 307.284 127.3ZM335.789 116.58C337.775 116.58 339.462 116.847 340.849 117.38C342.249 117.9 343.529 118.64 344.689 119.6L341.469 123.48C340.709 122.853 339.869 122.36 338.949 122C338.029 121.627 337.029 121.44 335.949 121.44C334.789 121.44 333.729 121.773 332.769 122.44C331.809 123.093 331.042 124.133 330.469 125.56C329.895 126.973 329.609 128.813 329.609 131.08C329.609 133.307 329.882 135.127 330.429 136.54C330.989 137.94 331.755 138.973 332.729 139.64C333.702 140.293 334.815 140.62 336.069 140.62C337.455 140.62 338.609 140.36 339.529 139.84C340.449 139.32 341.295 138.753 342.069 138.14L345.049 141.94C344.009 142.967 342.729 143.847 341.209 144.58C339.689 145.313 337.855 145.68 335.709 145.68C333.202 145.68 330.975 145.127 329.029 144.02C327.095 142.9 325.575 141.26 324.469 139.1C323.375 136.927 322.829 134.253 322.829 131.08C322.829 127.987 323.395 125.36 324.529 123.2C325.675 121.04 327.229 119.4 329.189 118.28C331.149 117.147 333.349 116.58 335.789 116.58ZM359.853 123.06C362.04 123.06 363.9 123.527 365.433 124.46C366.966 125.393 368.14 126.707 368.953 128.4C369.766 130.08 370.173 132.053 370.173 134.32C370.173 136.68 369.76 138.713 368.933 140.42C368.12 142.113 366.946 143.413 365.413 144.32C363.88 145.227 362.026 145.68 359.853 145.68C357.693 145.68 355.84 145.233 354.293 144.34C352.76 143.447 351.58 142.153 350.753 140.46C349.94 138.767 349.533 136.733 349.533 134.36C349.533 132.107 349.94 130.133 350.753 128.44C351.58 126.747 352.76 125.427 354.293 124.48C355.84 123.533 357.693 123.06 359.853 123.06ZM359.853 127.72C358.56 127.72 357.6 128.253 356.973 129.32C356.36 130.373 356.053 132.053 356.053 134.36C356.053 136.707 356.36 138.407 356.973 139.46C357.6 140.513 358.56 141.04 359.853 141.04C361.146 141.04 362.1 140.513 362.713 139.46C363.34 138.407 363.653 136.693 363.653 134.32C363.653 132.027 363.34 130.353 362.713 129.3C362.1 128.247 361.146 127.72 359.853 127.72ZM389.117 114.66L395.437 115.32V145H389.837L389.517 142.66C388.931 143.487 388.151 144.2 387.177 144.8C386.204 145.387 385.024 145.68 383.637 145.68C381.877 145.68 380.417 145.207 379.257 144.26C378.111 143.313 377.251 141.993 376.677 140.3C376.117 138.593 375.837 136.6 375.837 134.32C375.837 132.133 376.177 130.193 376.857 128.5C377.537 126.807 378.511 125.48 379.777 124.52C381.044 123.547 382.551 123.06 384.297 123.06C385.244 123.06 386.124 123.227 386.937 123.56C387.751 123.893 388.477 124.38 389.117 125.02V114.66ZM385.997 127.68C384.904 127.68 384.024 128.2 383.357 129.24C382.691 130.267 382.357 131.973 382.357 134.36C382.357 136.107 382.497 137.467 382.777 138.44C383.057 139.4 383.444 140.073 383.937 140.46C384.431 140.847 384.997 141.04 385.637 141.04C386.344 141.04 386.984 140.82 387.557 140.38C388.144 139.94 388.664 139.34 389.117 138.58V129.42C388.677 128.873 388.211 128.447 387.717 128.14C387.224 127.833 386.651 127.68 385.997 127.68ZM408.902 136.22C409.049 137.38 409.349 138.32 409.802 139.04C410.269 139.747 410.862 140.267 411.582 140.6C412.302 140.92 413.109 141.08 414.002 141.08C414.975 141.08 415.915 140.92 416.822 140.6C417.729 140.28 418.602 139.853 419.442 139.32L421.982 142.76C420.982 143.613 419.769 144.313 418.342 144.86C416.929 145.407 415.315 145.68 413.502 145.68C411.075 145.68 409.042 145.2 407.402 144.24C405.762 143.267 404.529 141.933 403.702 140.24C402.875 138.547 402.462 136.6 402.462 134.4C402.462 132.307 402.862 130.407 403.662 128.7C404.462 126.98 405.629 125.613 407.162 124.6C408.709 123.573 410.595 123.06 412.822 123.06C414.849 123.06 416.602 123.493 418.082 124.36C419.575 125.227 420.729 126.473 421.542 128.1C422.369 129.727 422.782 131.68 422.782 133.96C422.782 134.32 422.769 134.707 422.742 135.12C422.729 135.533 422.702 135.9 422.662 136.22H408.902ZM412.822 127.3C411.689 127.3 410.775 127.707 410.082 128.52C409.389 129.333 408.969 130.633 408.822 132.42H416.622C416.609 130.873 416.309 129.633 415.722 128.7C415.135 127.767 414.169 127.3 412.822 127.3Z" fill="#000116"/>
</g>
<path d="M600 65H606C609.314 65 612 67.6863 612 71V188C612 191.314 609.314 194 606 194H600V65Z" fill="#000116"/>
</g>
<defs>
<clipPath id="clip0_205_21">
<rect width="612" height="259" fill="white"/>
</clipPath>
<clipPath id="clip1_205_21">
<rect width="87" height="52" fill="white" transform="translate(391 106)"/>
</clipPath>
<clipPath id="clip2_205_21">
<rect width="281" height="52" fill="white" transform="translate(110 106)"/>
</clipPath>
</defs>
</svg>
